<svg xmlns="http://www.w3.org/2000/svg" xmlns:xlink="http://www.w3.org/1999/xlink" aria-hidden="true" role="img" width="84" height="17" viewBox="0 0 84 17" fill="none">
  <title>BeTalent Logo</title>
  <path d="M0 16.8555V0H6.22667C10.0189 0 12.2193 1.63739 12.2193 4.45467C12.2193 6.57365 11.002 7.77762 9.12933 8.18697C11.3063 8.47592 12.8045 9.65581 12.8045 12.0637C12.8045 15.0014 10.5573 16.8555 6.53098 16.8555H0ZM6.3203 2.84136H3.51128V6.93484H6.3203C7.81845 6.93484 8.70797 6.14023 8.70797 4.8881C8.70797 3.63598 7.84186 2.84136 6.3203 2.84136ZM6.55439 9.72804H3.51128V13.9901H6.55439C8.2398 13.9901 9.19955 13.1955 9.19955 11.8952C9.19955 10.5227 8.2164 9.72804 6.55439 9.72804Z" fill="white"></path>
  <path d="M20.4369 17C16.434 17 14.0229 14.5198 14.0229 10.6912C14.0229 6.83853 16.4808 4.33428 20.2028 4.33428C23.8077 4.33428 26.2422 6.64589 26.289 10.2819C26.289 10.6431 26.2656 11.0524 26.1954 11.4377H17.464V11.6062C17.5342 13.364 18.6344 14.4235 20.2964 14.4235C21.6307 14.4235 22.567 13.8215 22.8479 12.6657H26.1017C25.7272 15.0737 23.6438 17 20.4369 17ZM17.5342 9.22238H22.965C22.7309 7.70538 21.7243 6.86261 20.2262 6.86261C18.7983 6.86261 17.7215 7.75354 17.5342 9.22238Z" fill="white"></path>
  <path d="M26.4775 1.92635V0H39.1416V1.92635H33.8278V16.8555H31.7913V1.92635H26.4775Z" fill="white"></path>
  <path d="M48.8055 15.0496H49.4141V16.8555H48.3607C46.7689 16.8555 46.2305 16.1572 46.2071 14.9533C45.458 16.0609 44.2642 17 42.2042 17C39.5825 17 37.8034 15.6516 37.8034 13.4122C37.8034 10.9561 39.4654 9.58357 42.6022 9.58357H46.1135V8.74079C46.1135 7.15156 45.0133 6.18839 43.1406 6.18839C41.4552 6.18839 40.3316 7.00708 40.0975 8.25921H38.178C38.4589 5.85127 40.355 4.43059 43.2342 4.43059C46.2773 4.43059 48.033 5.99575 48.033 8.86119V14.2309C48.033 14.881 48.2671 15.0496 48.8055 15.0496ZM46.1135 11.847V11.245H42.4149C40.7061 11.245 39.7463 11.8952 39.7463 13.2918C39.7463 14.4957 40.7529 15.3144 42.3447 15.3144C44.7324 15.3144 46.1135 13.8938 46.1135 11.847Z" fill="white"></path>
  <path d="M49.9534 16.8555V0H51.8729V16.8555H49.9534Z" fill="white"></path>
  <path d="M59.0672 17C55.4857 17 53.1448 14.4717 53.1448 10.7153C53.1448 6.983 55.4388 4.43059 58.8097 4.43059C62.1805 4.43059 64.3809 6.62181 64.4745 10.2578C64.4745 10.5227 64.4511 10.8116 64.4277 11.1006H55.1579V11.2691C55.2282 13.6048 56.6561 15.2422 58.9267 15.2422C60.6121 15.2422 61.923 14.3272 62.321 12.738H64.2639C63.7957 15.194 61.8294 17 59.0672 17ZM55.275 9.46317H62.4146C62.2273 7.34419 60.8228 6.16431 58.8331 6.16431C57.0774 6.16431 55.4623 7.46459 55.275 9.46317Z" fill="white"></path>
  <path d="M71.5807 4.43059C74.2727 4.43059 76.4028 5.94759 76.4028 10.017V16.8555H74.4833V10.1374C74.4833 7.58499 73.3363 6.23654 71.253 6.23654C69.0057 6.23654 67.648 7.94618 67.648 10.7153V16.8555H65.7285V4.57507H67.3905L67.648 6.23654C68.3503 5.29745 69.5675 4.43059 71.5807 4.43059Z" fill="white"></path>
  <path d="M78.8033 13.653V6.38102H76.6497V4.57507H78.8033V1.13173H80.7228V4.57507H83.8127V6.38102H80.7228V13.6289C80.7228 14.6643 81.0739 15.0496 82.1039 15.0496H84V16.8555H81.9166C79.6226 16.8555 78.8033 15.8201 78.8033 13.653Z" fill="white"></path>
</svg>